<svg xmlns="http://www.w3.org/2000/svg" viewBox="0 0 1728 360.92">
  <defs>
    <style>.badge {fill: #f63;}
    </style>
    <style>.text {fill: #fff;}
    </style>
  </defs>
  <g id="Atlona-Panduit-Logo" data-name="Atlona Panduit Logo">
    <g id="Atlona-Badge" data-name="Atlona Badge" class="badge">
      <path id="Atlona-Badge-2" data-name="Atlona Badge" d="M157.16,0A157.16,157.16,0,1,0,314.32,157.16,157.16,157.16,0,0,0,157.16,0Zm-6.41,207.09a37.05,37.05,0,0,0-4.92,4.63L95.17,270a126.38,126.38,0,0,1-36.34-30.62l90.05-103.53-.26.23c1.21-1.41,2.44-2.76,3.65-4.1l.36-.41c.43-.52.9-1,1.41-1.54,13.55-14.64,26.66-25.07,38.24-28.85-16,8.46-29.89,33.17-29.89,33.17,7.78-.07,12.05,5.37,14.11,7.41l82.11,97.06a125.81,125.81,0,0,1-35.18,31.24L182.2,221.9l-8.83-10.18a66.49,66.49,0,0,0-6.28-5.42,11.46,11.46,0,0,0-15.33,0C151.39,206.57,151.08,206.83,150.75,207.09Zm61.91-104.9s-.09,0-.15-.1l-7.73-8.94A50.55,50.55,0,0,0,185.4,79.44a65.91,65.91,0,0,0-51.56.55A55.1,55.1,0,0,0,114,94.3L34.56,186.63a125.67,125.67,0,1,1,246.24-5.58Z" />
    </g>
    <g id="Text" data-name="Text" class="text">
      <g id="Atlona-Registered" data-name="Atlona Registered">
        <g id="Atlona" data-name="Atlona">
          <path id="A-1" data-name="A" d="M554.51,169.08l-46.26-53.81A35.59,35.59,0,0,0,495.38,106a42.72,42.72,0,0,0-34.24,0,35.77,35.77,0,0,0-12.87,9.28L402,169.08c-.3.35-29.58,35-32.86,38.66-1.27,1.43-1.7,2.56-1.31,3.48.53,1.23,2.29,1.33,2.49,1.33,1,0,2.14,0,3.39,0,9.35,0,25.85-.83,31.23-6.41,12.5-13,34.46-39.33,34.68-39.6L468,134a31.5,31.5,0,0,1,4.58-4.18,8.5,8.5,0,0,1,11.38,0,31.54,31.54,0,0,1,4.58,4.19l28.37,32.57c.22.26,22.84,26.63,35.33,39.58,5.38,5.58,21.88,6.42,31.24,6.42,1.25,0,2.39,0,3.38,0,.2,0,2-.1,2.49-1.33.39-.92,0-2.05-1.31-3.48C584.75,204.06,554.81,169.42,554.51,169.08Z" />
          <path id="T-1" data-name="T" d="M762.13,104.4H591.56c-5,0-9.06,1.63-12,4.83-6.25,6.87-5.24,18.48-5.19,19l.05.51h78v61.69c0,19.41,16.68,21.51,23.85,21.51a28.4,28.4,0,0,0,3.56-.19l.49-.06v-83h64.24c5.5,0,9.83-1.74,12.85-5.17,6.1-6.92,4.77-18.16,4.7-18.64Z" />
          <path id="L-1" data-name="L" d="M941.71,187.2H836.25a10.75,10.75,0,0,1-7-2.52,7.39,7.39,0,0,1-3-5.82V123.11c0-17.54-19.36-18.9-25.29-18.9-1.28,0-2.06.06-2.09.06l-.52,0v74.55a27,27,0,0,0,3.13,12.8A34.58,34.58,0,0,0,809.8,202a40.5,40.5,0,0,0,12.29,7,43.56,43.56,0,0,0,15,2.56H963l0-.52c0-.43.86-10.75-5.52-17.72C953.85,189.24,948.53,187.2,941.71,187.2Z" />
          <path id="O-1" data-name="O" d="M1160.19,102.6H1046.3a54.5,54.5,0,0,0-54.5,54.5v22.09A33.21,33.21,0,0,0,1025,212.4H1138.9a54.5,54.5,0,0,0,54.5-54.5V135.81A33.21,33.21,0,0,0,1160.19,102.6ZM1045.85,126h113.88a9.38,9.38,0,0,1,9.37,9.37v22.08a30.65,30.65,0,0,1-30.65,30.65H1024.56a9.36,9.36,0,0,1-9.36-9.36V156.65A30.65,30.65,0,0,1,1045.85,126Z" />
          <path id="N-1" data-name="N" d="M1423.63,103.32c-6.17,0-20.53,1.64-20.53,16.94v68.58c-13.33-14.91-88.1-86.92-144.18-86.63a64.72,64.72,0,0,0-16.38,2l-8.23,2.34-.41.12v106.8l.54,0s.61,0,1.65,0c5.19,0,22.11-1.21,22.11-16.84V124.62a42.39,42.39,0,0,1,4.54-.25c10.52,0,29.78,8.84,45.77,17.66,70.24,38.79,67.24,72,110.91,70.45,2.74,0,8-1,8-3.3V103.54l-.5-.06A28.41,28.41,0,0,0,1423.63,103.32Z" />
          <path id="A-2" data-name="A" d="M1643.44,169.08l-46.26-53.81a35.59,35.59,0,0,0-12.87-9.28,42.7,42.7,0,0,0-34.23,0,35.59,35.59,0,0,0-12.87,9.28l-46.27,53.81c-.29.35-29.58,35-32.85,38.66-1.27,1.43-1.7,2.56-1.31,3.48.53,1.23,2.28,1.33,2.48,1.33,1,0,2.14,0,3.39,0,9.35,0,25.86-.83,31.24-6.41,12.49-13,34.45-39.33,34.67-39.6L1556.93,134a31.37,31.37,0,0,1,4.57-4.18,8.5,8.5,0,0,1,11.38,0,31.54,31.54,0,0,1,4.58,4.19l28.37,32.57c.22.26,22.84,26.63,35.33,39.58,5.39,5.58,21.89,6.42,31.24,6.42,1.25,0,2.39,0,3.38,0,.21,0,2-.1,2.49-1.33.39-.92,0-2.05-1.31-3.48C1673.68,204.06,1643.74,169.42,1643.44,169.08Z" />
        </g>
        <g id="Registered-Atlona" data-name="Registered Atlona">
          <path id="Registered-1" data-name="Registered" d="M1725.14,209.74a9.8,9.8,0,1,1,2.86-6.94A9.42,9.42,0,0,1,1725.14,209.74Zm-12.87-12.88a8.43,8.43,0,1,0,11.9,11.95,8.51,8.51,0,0,0,0-11.95,8.38,8.38,0,0,0-11.9,0Zm6,.24a7.93,7.93,0,0,1,2.9.39,2.68,2.68,0,0,1,1.65,2.73,2.36,2.36,0,0,1-1,2.13,3.9,3.9,0,0,1-1.54.53,2.58,2.58,0,0,1,1.82,1.06,3,3,0,0,1,.58,1.67v.79c0,.25,0,.52,0,.8a2.13,2.13,0,0,0,.09.57l.07.13h-1.89a.76.76,0,0,1,0-.11.59.59,0,0,0,0-.13l0-.37v-.9a2.91,2.91,0,0,0-1-2.62,4.07,4.07,0,0,0-2-.37h-1.46v4.5h-1.8V197.1Zm1.69,2.17a4.49,4.49,0,0,0-2.12-.37h-1.49v3.6h1.58a5,5,0,0,0,1.67-.22,1.54,1.54,0,0,0,1-1.56A1.51,1.51,0,0,0,1719.91,199.27Z" />
        </g>
      </g>
      <g id="a-Panduit-company" data-name="a Panduit company">
        <g id="Panduit-Registered" data-name="Panduit Registered">
          <path id="Panduit" d="M1027.8,310.42,1020,290.7H997.2v36.35L981.7,290.7H963.05c-2.65-10-10.6-16.84-25-17.1l-50.68.07V342.9h33.3V320.4h19.82A31.71,31.71,0,0,0,951,318.69L940.17,342.9H957l4.18-9.9L980,333l4.34,9.86h29.08V322.44l9.42,20.46H1044V290.7h-16.2ZM932.4,306a3.59,3.59,0,0,1-3.68,3.62H922.5V284.4h6.22c2.28-.16,3.6,1.62,3.68,3.7Zm34.77,17.08,5.86-14.2,5.83,14.24ZM1151.1,342.9h18V290.7h-18Zm-21.48-15.28c0,1.21.23,3.61-1.64,3.58l-4.4,0c-2,0-2.13-1.92-2.18-3.6l0-36.92h-19v41.36c0,10.16,12,10.84,12,10.84h20.32c10.17,0,10-10.69,10-10.69V290.7h-15.3l.08,36.9m43.12-36.9v10.8h12.6v41.4h18V301.5h12.6V290.7Zm-86.4,0h-35.1v52.2h35.54c5.29,0,9.46-1.4,9.46-7.13v-38c-.09-4.32-4.17-7.06-9.46-7.06m-7.64,36.13c0,2.45-1.34,3.47-2.85,3.47H1071V301.5h4.71a3.3,3.3,0,0,1,3.39,3.49Z" />
          <g id="Registered-Panduit">
            <path id="Registered-2" data-name="Registered" d="M1230.1,299.89a5.43,5.43,0,0,1-7.72,0,5.3,5.3,0,0,1-1.58-3.87,5.45,5.45,0,1,1,9.3,3.87Zm-7.18-7.19a4.74,4.74,0,0,0,0,6.67,4.72,4.72,0,1,0,0-6.67Zm3.33.14a4.65,4.65,0,0,1,1.62.21,1.51,1.51,0,0,1,.92,1.53,1.33,1.33,0,0,1-.58,1.19,2.33,2.33,0,0,1-.86.29,1.47,1.47,0,0,1,1,.59,1.71,1.71,0,0,1,.32.94V298c0,.14,0,.29,0,.45a.78.78,0,0,0,.06.31l0,.07h-1l0-.06s0,0,0-.07l0-.21V298a1.6,1.6,0,0,0-.55-1.46,2.22,2.22,0,0,0-1.14-.21h-.82v2.51h-1v-6Zm.94,1.21a2.51,2.51,0,0,0-1.18-.21h-.84v2h.88a2.78,2.78,0,0,0,.94-.12.86.86,0,0,0,.57-.87A.83.83,0,0,0,1227.19,294.05Z" />
          </g>
        </g>
        <g id="a-company" data-name="a company">
          <path id="a-1" data-name="a" d="M855,340.65a13,13,0,0,1-6.21,1.24,7.73,7.73,0,0,1-5.35-1.77c-1.33-1.17-2-3.1-2-5.77a20.69,20.69,0,0,1-8.3,5.77,30.4,30.4,0,0,1-17,1,16.08,16.08,0,0,1-5.55-2.38,11.57,11.57,0,0,1-3.72-4.24,13.46,13.46,0,0,1-1.38-6.34,13.73,13.73,0,0,1,1.53-6.87,12.78,12.78,0,0,1,4-4.33,19,19,0,0,1,5.7-2.53q3.21-.85,6.57-1.43c2.38-.44,4.64-.78,6.78-1a40.13,40.13,0,0,0,5.65-.95,9.79,9.79,0,0,0,3.88-1.81,4.29,4.29,0,0,0,1.42-3.48,7.62,7.62,0,0,0-1.07-4.29,7.12,7.12,0,0,0-2.75-2.48,11.78,11.78,0,0,0-3.77-1.15,30.49,30.49,0,0,0-4.13-.28,19.35,19.35,0,0,0-9.16,1.95c-2.45,1.31-3.77,3.77-4,7.39h-8.66a16.66,16.66,0,0,1,2-7.72,14.74,14.74,0,0,1,4.89-5.1,21.27,21.27,0,0,1,7-2.81,38.75,38.75,0,0,1,8.4-.86,54.12,54.12,0,0,1,7.09.47,19.54,19.54,0,0,1,6.36,1.95,12.05,12.05,0,0,1,4.59,4.14,12.59,12.59,0,0,1,1.73,6.94v25.31a17.46,17.46,0,0,0,.36,4.18c.23.89,1,1.34,2.39,1.34a10.94,10.94,0,0,0,2.65-.39ZM840.6,315.5a11.78,11.78,0,0,1-4.41,1.66q-2.73.52-5.73.86t-6,.76a23.91,23.91,0,0,0-5.47,1.37,9.79,9.79,0,0,0-3.93,2.7,7.07,7.07,0,0,0-1.53,4.8,6,6,0,0,0,.9,3.36,6.94,6.94,0,0,0,2.31,2.23,10.34,10.34,0,0,0,3.3,1.24,20.51,20.51,0,0,0,4,.37,23.13,23.13,0,0,0,7.56-1.09,16.09,16.09,0,0,0,5.14-2.75,10.85,10.85,0,0,0,2.94-3.6,8.3,8.3,0,0,0,1-3.65Z" />
          <path id="c-1" data-name="c" d="M1284,300.62q-3.33-2.55-9-2.55a17.88,17.88,0,0,0-8,1.61,13.88,13.88,0,0,0-5.15,4.25,17.12,17.12,0,0,0-2.76,6.09,30.51,30.51,0,0,0-.83,7.13,24.34,24.34,0,0,0,.89,6.61,16.78,16.78,0,0,0,2.75,5.72,13.62,13.62,0,0,0,4.89,4A15.87,15.87,0,0,0,1274,335q6.55,0,10.25-3.11a13.6,13.6,0,0,0,4.53-8.79h9q-1.46,9.06-7.44,14T1274.1,342a30.72,30.72,0,0,1-10.88-1.79,20.73,20.73,0,0,1-12.69-13,30,30,0,0,1-1.62-10.06,32.8,32.8,0,0,1,1.57-10.25,22.92,22.92,0,0,1,4.73-8.31,22.09,22.09,0,0,1,8-5.57,28.39,28.39,0,0,1,11.14-2,35.67,35.67,0,0,1,8.58,1,22,22,0,0,1,7.08,3.07,17.53,17.53,0,0,1,5,5.24,18.18,18.18,0,0,1,2.49,7.51h-9.15A12.06,12.06,0,0,0,1284,300.62Z" />
          <path id="o-1" data-name="o" d="M1306.77,306.21a22.49,22.49,0,0,1,5-8.2,23.63,23.63,0,0,1,8.3-5.48,33.32,33.32,0,0,1,22.74,0,23.84,23.84,0,0,1,8.24,5.48,22.49,22.49,0,0,1,5,8.2,30,30,0,0,1,1.68,10.15,29.61,29.61,0,0,1-1.68,10.1,22.58,22.58,0,0,1-5,8.16,23.32,23.32,0,0,1-8.24,5.43,34.12,34.12,0,0,1-22.74,0,23.12,23.12,0,0,1-8.3-5.43,22.58,22.58,0,0,1-5-8.16,29.61,29.61,0,0,1-1.68-10.1A30,30,0,0,1,1306.77,306.21Zm9.08,18.11a16.59,16.59,0,0,0,3.62,5.82,15.89,15.89,0,0,0,5.42,3.57,18,18,0,0,0,13.12,0,15.85,15.85,0,0,0,5.41-3.57,16.46,16.46,0,0,0,3.63-5.82,24.84,24.84,0,0,0,0-15.92,16.91,16.91,0,0,0-3.63-5.86,15.45,15.45,0,0,0-5.41-3.63,18.11,18.11,0,0,0-13.12,0,15.49,15.49,0,0,0-5.42,3.63,17,17,0,0,0-3.62,5.86,24.84,24.84,0,0,0,0,15.92Z" />
          <path id="m-1" data-name="m" d="M1377,291.6v7.2h.21q6.07-8.43,17.48-8.44a21.13,21.13,0,0,1,9.1,1.92,11,11,0,0,1,5.76,6.52,18.28,18.28,0,0,1,7.17-6.23,21.68,21.68,0,0,1,9.78-2.21,30.47,30.47,0,0,1,7.38.82,15.83,15.83,0,0,1,5.65,2.54,11.66,11.66,0,0,1,3.66,4.46,15.12,15.12,0,0,1,1.31,6.57V341.1h-9V308.78a21.69,21.69,0,0,0-.41-4.29,8.52,8.52,0,0,0-1.55-3.47,7.6,7.6,0,0,0-3.16-2.34,13.47,13.47,0,0,0-5.22-.86q-6.51,0-10.24,3.43a11.86,11.86,0,0,0-3.72,9.15v30.7h-9.9V308.78a19.35,19.35,0,0,0-.47-4.38,8.91,8.91,0,0,0-1.6-3.48,7.42,7.42,0,0,0-3-2.29,12.71,12.71,0,0,0-4.91-.81,14.1,14.1,0,0,0-6.57,1.43,14.76,14.76,0,0,0-4.44,3.43,13.36,13.36,0,0,0-2.48,4.15,10.9,10.9,0,0,0-.78,3.57v30.7h-8.1V291.6Z" />
          <path id="p-1" data-name="p" d="M1467,291.6v7.2h.21a12.87,12.87,0,0,1,6.93-5.95,28.06,28.06,0,0,1,10.38-1.86,26.57,26.57,0,0,1,11,2.1,21.93,21.93,0,0,1,7.76,5.66,24.2,24.2,0,0,1,4.67,8.24,30.76,30.76,0,0,1,1.58,9.91,31.57,31.57,0,0,1-1.53,9.9,22.63,22.63,0,0,1-4.61,8.14,21.68,21.68,0,0,1-7.77,5.48,27.44,27.44,0,0,1-10.86,2,30,30,0,0,1-4.46-.38,27.51,27.51,0,0,1-4.88-1.24,19.64,19.64,0,0,1-4.56-2.33,13.59,13.59,0,0,1-3.62-3.67H1467V360h-9V291.6Zm32.23,17.56a17.49,17.49,0,0,0-3-5.86,14.69,14.69,0,0,0-5.25-4.1,17.42,17.42,0,0,0-7.51-1.52,16.62,16.62,0,0,0-7.67,1.62,14.92,14.92,0,0,0-5.15,4.24,17,17,0,0,0-2.89,6,26.27,26.27,0,0,0-.89,6.77,25.88,25.88,0,0,0,1,7,16.57,16.57,0,0,0,3,6,15.09,15.09,0,0,0,5.3,4.15A18,18,0,0,0,1484,335a16.53,16.53,0,0,0,7.72-1.62,13.83,13.83,0,0,0,5-4.29,17.72,17.72,0,0,0,2.73-6.1,29.59,29.59,0,0,0,.84-7.06A22.94,22.94,0,0,0,1499.23,309.16Z" />
          <path id="a-2" data-name="a" d="M1567.8,340.65a13,13,0,0,1-6.21,1.24,7.73,7.73,0,0,1-5.35-1.77c-1.33-1.17-2-3.1-2-5.77a20.69,20.69,0,0,1-8.3,5.77,30.4,30.4,0,0,1-17,1,16.08,16.08,0,0,1-5.55-2.38,11.57,11.57,0,0,1-3.72-4.24,13.46,13.46,0,0,1-1.38-6.34,13.73,13.73,0,0,1,1.53-6.87,12.78,12.78,0,0,1,4-4.33,19,19,0,0,1,5.7-2.53q3.21-.85,6.57-1.43c2.38-.44,4.64-.78,6.78-1a40.13,40.13,0,0,0,5.65-.95,9.79,9.79,0,0,0,3.88-1.81,4.29,4.29,0,0,0,1.42-3.48,7.62,7.62,0,0,0-1.07-4.29A7.12,7.12,0,0,0,1550,299a11.78,11.78,0,0,0-3.77-1.15,30.49,30.49,0,0,0-4.13-.28,19.42,19.42,0,0,0-9.17,1.95q-3.66,2-4,7.39h-8.66a16.66,16.66,0,0,1,2-7.72,14.74,14.74,0,0,1,4.89-5.1,21.27,21.27,0,0,1,7-2.81,38.69,38.69,0,0,1,8.4-.86,54.12,54.12,0,0,1,7.09.47,19.54,19.54,0,0,1,6.36,1.95,12.05,12.05,0,0,1,4.59,4.14,12.59,12.59,0,0,1,1.73,6.94v25.31a17.46,17.46,0,0,0,.36,4.18c.23.89,1,1.34,2.39,1.34a10.94,10.94,0,0,0,2.65-.39Zm-14.4-25.15a11.78,11.78,0,0,1-4.41,1.66q-2.73.52-5.73.86c-2,.22-4,.47-6,.76a24,24,0,0,0-5.46,1.37,9.79,9.79,0,0,0-3.93,2.7,7.07,7.07,0,0,0-1.53,4.8,6.07,6.07,0,0,0,.89,3.36,7.07,7.07,0,0,0,2.32,2.23,10.34,10.34,0,0,0,3.3,1.24,20.48,20.48,0,0,0,4,.37,23.15,23.15,0,0,0,7.57-1.09,16.09,16.09,0,0,0,5.14-2.75,11,11,0,0,0,2.94-3.6,8.44,8.44,0,0,0,1-3.65Z" />
          <path id="n-1" data-name="n" d="M1584.9,291.6v8.1h.21q5.63-8.94,17.82-8.94a26.23,26.23,0,0,1,9,1.33,14.85,14.85,0,0,1,5.83,3.71,13.29,13.29,0,0,1,3.13,5.66,27.54,27.54,0,0,1,.9,7.28V341.1h-9V307.74a9.32,9.32,0,0,0-2.93-7.25q-2.92-2.67-8.06-2.67a19.76,19.76,0,0,0-7.06,1.14,13.31,13.31,0,0,0-5,3.25,13.53,13.53,0,0,0-3,4.91,18.1,18.1,0,0,0-1,6.14V341.1h-9V291.6Z" />
          <path id="y-1" data-name="y" d="M1656.45,347.71a52.38,52.38,0,0,1-3.11,6.13,17.13,17.13,0,0,1-3.38,4.06,11.62,11.62,0,0,1-4.11,2.3,17.36,17.36,0,0,1-5.23.72,25.89,25.89,0,0,1-3.16-.19,16.52,16.52,0,0,1-3.06-.67v-7.47a15.66,15.66,0,0,0,2.69.81,12,12,0,0,0,2.59.34,8.3,8.3,0,0,0,4.59-1.2,7.43,7.43,0,0,0,2.79-3.4l3.69-8.33-21.62-49.21h10.12l15.93,40.5h.21l15.3-40.5h9.5Z" />
        </g>
      </g>
    </g>
  </g>
</svg>
