<svg xmlns="http://www.w3.org/2000/svg" viewBox="0 0 1678.41 314.32">
  <defs>
    <style>.badge{fill:#f63;}</style>
    <style>.text{fill:#fff;}</style>
  </defs>
  <g id="Atlona-Logo" data-name="Atlona Logo">
    <path id="Atlona-Badge" data-name="Atlona Badge" class="badge" d="M157.16,0A157.16,157.16,0,1,0,314.32,157.16,157.16,157.16,0,0,0,157.16,0Zm-6.41,207.09a37.05,37.05,0,0,0-4.92,4.63L95.17,270a126.38,126.38,0,0,1-36.34-30.62l90.05-103.53-.26.23c1.21-1.41,2.44-2.76,3.65-4.1l.36-.41c.43-.52.9-1,1.41-1.54,13.55-14.64,26.66-25.07,38.24-28.85-16,8.46-29.89,33.17-29.89,33.17,7.78-.07,12.05,5.37,14.11,7.41l82.11,97.06a125.81,125.81,0,0,1-35.18,31.24L182.2,221.9l-8.83-10.18a66.49,66.49,0,0,0-6.28-5.42,11.46,11.46,0,0,0-15.33,0C151.39,206.57,151.08,206.83,150.75,207.09Zm61.91-104.9s-.09,0-.15-.1l-7.73-8.94A50.55,50.55,0,0,0,185.4,79.44a65.91,65.91,0,0,0-51.56.55A55.1,55.1,0,0,0,114,94.3L34.56,186.63a125.67,125.67,0,1,1,246.24-5.58Z" />
    <g id="Atlona" data-name="Atlona" class="text">
      <path id="A-1" data-name="A" d="M554.51,169.08l-46.26-53.81A35.59,35.59,0,0,0,495.38,106a42.72,42.72,0,0,0-34.24,0,35.77,35.77,0,0,0-12.87,9.28L402,169.08c-.3.35-29.58,35-32.86,38.66-1.27,1.43-1.7,2.56-1.31,3.48.53,1.23,2.29,1.33,2.49,1.33,1,0,2.14,0,3.39,0,9.35,0,25.85-.83,31.23-6.41,12.5-13,34.46-39.33,34.68-39.6L468,134a31.5,31.5,0,0,1,4.58-4.18,8.5,8.5,0,0,1,11.38,0,31.54,31.54,0,0,1,4.58,4.19l28.37,32.57c.22.26,22.84,26.63,35.33,39.58,5.38,5.58,21.88,6.42,31.24,6.42,1.25,0,2.39,0,3.38,0,.2,0,2-.1,2.49-1.33.39-.92,0-2.05-1.31-3.48C584.75,204.06,554.81,169.42,554.51,169.08Z" />
      <path id="T" data-name="T" d="M762.13,104.4H591.56c-5,0-9.06,1.63-12,4.83-6.25,6.87-5.24,18.48-5.19,19l.05.51h78v61.69c0,19.41,16.68,21.51,23.85,21.51a28.4,28.4,0,0,0,3.56-.19l.49-.06v-83h64.24c5.5,0,9.83-1.74,12.85-5.17,6.1-6.92,4.77-18.16,4.7-18.64Z" />
      <path id="L" data-name="L" d="M941.71,187.2H836.25a10.75,10.75,0,0,1-7-2.52,7.39,7.39,0,0,1-3-5.82V123.11c0-17.54-19.36-18.9-25.29-18.9-1.28,0-2.06.06-2.09.06l-.52,0v74.55a27,27,0,0,0,3.13,12.8A34.58,34.58,0,0,0,809.8,202a40.5,40.5,0,0,0,12.29,7,43.56,43.56,0,0,0,15,2.56H963l0-.52c0-.43.86-10.75-5.52-17.72C953.85,189.24,948.53,187.2,941.71,187.2Z" />
      <path id="O" data-name="O" d="M1160.19,102.6H1046.3a54.5,54.5,0,0,0-54.5,54.5v22.09A33.21,33.21,0,0,0,1025,212.4H1138.9a54.5,54.5,0,0,0,54.5-54.5V135.81A33.21,33.21,0,0,0,1160.19,102.6ZM1045.85,126h113.88a9.38,9.38,0,0,1,9.37,9.37v22.08a30.65,30.65,0,0,1-30.65,30.65H1024.56a9.36,9.36,0,0,1-9.36-9.36V156.65A30.65,30.65,0,0,1,1045.85,126Z" />
      <path id="N" data-name="N" d="M1423.63,103.32c-6.17,0-20.53,1.64-20.53,16.94v68.58c-13.33-14.91-88.1-86.92-144.18-86.63a64.72,64.72,0,0,0-16.38,2l-8.23,2.34-.41.12v106.8l.54,0s.61,0,1.65,0c5.19,0,22.11-1.21,22.11-16.84V124.62a42.39,42.39,0,0,1,4.54-.25c10.52,0,29.78,8.84,45.77,17.66,70.24,38.79,67.24,72,110.91,70.45,2.74,0,8-1,8-3.3V103.54l-.5-.06A28.41,28.41,0,0,0,1423.63,103.32Z" />
      <path id="A-2" d="M1643.44,169.08l-46.26-53.81a35.59,35.59,0,0,0-12.87-9.28,42.7,42.7,0,0,0-34.23,0,35.59,35.59,0,0,0-12.87,9.28l-46.27,53.81c-.29.35-29.58,35-32.85,38.66-1.27,1.43-1.7,2.56-1.31,3.48.53,1.23,2.28,1.33,2.48,1.33,1,0,2.14,0,3.39,0,9.35,0,25.86-.83,31.24-6.41,12.49-13,34.45-39.33,34.67-39.6L1556.93,134a31.37,31.37,0,0,1,4.57-4.18,8.5,8.5,0,0,1,11.38,0,31.54,31.54,0,0,1,4.58,4.19l28.37,32.57c.22.26,22.84,26.63,35.33,39.58,5.39,5.58,21.89,6.42,31.24,6.42,1.25,0,2.39,0,3.38,0,.21,0,2-.1,2.49-1.33.39-.92,0-2.05-1.31-3.48C1673.68,204.06,1643.74,169.42,1643.44,169.08Z" />
    </g>
  </g>
</svg>