<svg xmlns="http://www.w3.org/2000/svg" viewBox="0 0 512 512"><defs><style>.cls-1{fill:#f63;}</style></defs><g id="Layer_2" data-name="Layer 2"><g id="Atlona_Badge" data-name="Atlona Badge"><g id="android-chrome-white"><circle cx="256" cy="256" r="256"/><path class="cls-1" d="M256,0C114.61,0,0,114.61,0,256S114.61,512,256,512,512,397.39,512,256,397.39,0,256,0M245.57,337.33a60.08,60.08,0,0,0-8,7.53l-82.53,95A205.91,205.91,0,0,1,95.82,390l146.7-168.62a3,3,0,0,0-.44.36c2-2.31,4-4.51,6-6.67l.58-.7c.69-.84,1.46-1.65,2.3-2.49C273,188,294.34,171,313.21,164.85c-26,13.8-48.7,54.06-48.7,54.06,12.67-.13,19.65,8.74,23,12L421.24,389A204.92,204.92,0,0,1,364,440l-67.17-78.51L282.4,344.86A108,108,0,0,0,272.18,336a18.68,18.68,0,0,0-25,0c-.59.44-1.1.86-1.63,1.29M346.42,166.46c-.08-.06-.18-.08-.25-.17l-12.59-14.57c-8.14-9.48-18.66-17-31.58-22.32a107.4,107.4,0,0,0-84,.89q-20.15,9-32.32,23.31L56.3,304a205.49,205.49,0,0,1-4.95-44.34C51.35,146.62,143,55,256,55s204.63,91.59,204.63,204.63a205.74,205.74,0,0,1-3.22,35.25Z"/></g></g></g></svg>