<?xml version="1.0" standalone="no"?>
<!DOCTYPE svg PUBLIC "-//W3C//DTD SVG 20010904//EN"
 "http://www.w3.org/TR/2001/REC-SVG-20010904/DTD/svg10.dtd">
<svg version="1.0" xmlns="http://www.w3.org/2000/svg"
 width="700.000000pt" height="700.000000pt" viewBox="0 0 700.000000 700.000000"
 preserveAspectRatio="xMidYMid meet">
<metadata>
Created by potrace 1.14, written by Peter Selinger 2001-2017
</metadata>
<g transform="translate(0.000000,700.000000) scale(0.100000,-0.100000)"
fill="#000000" stroke="none">
<path d="M3298 6295 c-2 -2 -37 -6 -78 -10 -679 -59 -1354 -406 -1821 -935
-87 -99 -199 -244 -199 -259 0 -5 -3 -11 -7 -13 -32 -14 -216 -347 -284 -513
-55 -135 -128 -370 -144 -465 -3 -19 -11 -55 -16 -80 -6 -25 -13 -63 -15 -85
-3 -22 -7 -51 -10 -65 -13 -77 -19 -197 -19 -370 0 -244 9 -341 51 -560 16
-80 48 -201 79 -300 257 -794 861 -1438 1635 -1743 102 -40 282 -100 336 -112
118 -26 271 -54 319 -60 33 -3 89 -10 125 -15 66 -8 499 -6 535 3 11 3 45 8
76 11 31 4 65 8 75 10 11 2 39 7 64 11 79 13 86 14 186 40 430 111 831 321
1156 607 275 242 487 515 653 843 150 294 231 554 281 895 19 130 27 512 13
625 -4 39 -11 91 -13 116 -3 25 -13 81 -21 125 -9 43 -18 94 -21 112 -16 95
-95 339 -159 492 -94 224 -275 521 -423 692 -475 553 -1098 897 -1782 984 -30
4 -71 9 -90 11 -41 5 -477 13 -482 8z m462 -601 c185 -23 439 -87 555 -139 17
-7 50 -21 75 -31 102 -40 280 -140 409 -231 233 -163 473 -425 623 -680 137
-232 247 -526 283 -754 29 -183 40 -490 22 -614 -3 -22 -9 -65 -13 -95 -3 -30
-8 -58 -11 -62 -3 -6 -174 186 -458 516 -159 185 -180 210 -211 245 -31 35
-235 271 -278 321 -40 47 -141 165 -151 176 -33 37 -133 152 -199 229 -157
182 -266 261 -454 329 -371 133 -778 73 -1088 -160 -39 -30 -96 -82 -125 -116
-30 -34 -59 -66 -64 -72 -6 -6 -48 -56 -95 -111 -47 -55 -91 -106 -98 -113 -7
-8 -61 -71 -120 -140 -59 -70 -116 -136 -127 -148 -11 -11 -35 -39 -53 -62
-19 -22 -44 -52 -55 -65 -42 -46 -83 -93 -167 -192 -47 -55 -97 -113 -111
-130 -14 -16 -55 -64 -91 -105 -160 -186 -263 -306 -273 -316 -5 -6 -28 -33
-50 -60 -22 -27 -58 -68 -80 -92 l-39 -44 -12 54 c-48 214 -54 573 -13 807 6
31 12 70 15 86 7 41 51 198 74 265 150 442 443 835 827 1108 144 102 319 195
504 268 89 34 318 98 399 110 231 35 461 41 650 18z m335 -1213 c-6 -5 -30
-23 -55 -40 -65 -46 -172 -152 -245 -242 -82 -102 -200 -277 -192 -285 3 -4
27 -10 52 -15 82 -15 133 -58 294 -248 53 -63 125 -149 161 -191 36 -42 83
-98 105 -124 22 -27 45 -54 50 -60 41 -46 83 -95 366 -431 106 -126 198 -235
204 -241 5 -6 28 -33 50 -60 22 -26 56 -66 75 -89 19 -23 56 -66 81 -96 26
-29 93 -108 149 -174 56 -66 104 -126 107 -133 11 -26 -164 -217 -322 -353
-124 -106 -293 -218 -303 -202 -4 5 -27 34 -52 63 -25 28 -52 60 -60 70 -8 9
-38 44 -66 76 -28 32 -145 169 -260 304 -114 135 -211 247 -214 250 -3 3 -59
67 -124 144 -183 212 -269 275 -366 271 -86 -4 -160 -62 -330 -260 -52 -60
-97 -112 -100 -115 -3 -3 -48 -54 -99 -115 -52 -60 -99 -114 -105 -120 -6 -5
-51 -57 -101 -115 -49 -58 -94 -110 -100 -116 -5 -6 -75 -86 -154 -177 l-144
-167 -46 27 c-191 111 -413 296 -559 467 l-42 49 37 46 c21 25 44 53 53 61 8
8 28 31 44 50 15 19 45 53 65 75 20 22 79 90 130 150 52 61 102 117 110 126 9
9 35 38 57 65 23 27 50 59 60 70 11 12 40 46 66 75 25 30 56 65 68 79 12 14
45 52 73 85 29 33 70 80 92 105 23 25 115 131 205 235 90 105 171 197 179 206
9 9 39 42 66 75 51 59 201 233 329 379 119 136 306 313 421 399 130 96 130 96
220 140 75 37 84 41 70 27z"/>
</g>
</svg>
